<?xml version="1.0" encoding="UTF-8"?>
<svg width="28px" height="28px" viewBox="0 0 28 28" version="1.1" xmlns="http://www.w3.org/2000/svg" xmlns:xlink="http://www.w3.org/1999/xlink">
    <!-- Generator: Sketch 41 (35326) - http://www.bohemiancoding.com/sketch -->
    <title>AddButton</title>
    <desc>Created with Sketch.</desc>
    <defs></defs>
    <g id="Page-1" stroke="none" stroke-width="1" fill="none" fill-rule="evenodd">
        <g id="AddButton" fill="#FFFFFF">
            <g id="Page-1">
                <path d="M14,28 C13.6136,28 13.2985067,27.6864 13.2985067,27.3 L13.2985067,0.701493333 C13.2985067,0.3136 13.6136,0 14,0 C14.3864,0 14.7014933,0.3136 14.7014933,0.701493333 L14.7014933,27.3 C14.7014933,27.6864 14.3864,28 14,28 L14,28 Z" id="Fill-1"></path>
                <path d="M0,14 C0,13.6136 0.3136,13.2985067 0.7,13.2985067 L27.2985067,13.2985067 C27.6849067,13.2985067 27.9985067,13.6121067 27.9985067,14 C27.9985067,14.3864 27.6849067,14.7014933 27.2985067,14.7014933 L0.7,14.7014933 C0.3136,14.7014933 0,14.3864 0,14 L0,14 Z" id="Fill-2"></path>
            </g>
        </g>
    </g>
</svg>